<?xml version="1.0" encoding="utf-8"?>
<!-- Generator: Adobe Illustrator 15.0.0, SVG Export Plug-In . SVG Version: 6.00 Build 0)  -->
<!DOCTYPE svg PUBLIC "-//W3C//DTD SVG 1.1//EN" "http://www.w3.org/Graphics/SVG/1.1/DTD/svg11.dtd">
<svg version="1.1" id="Layer_1" xmlns="http://www.w3.org/2000/svg" xmlns:xlink="http://www.w3.org/1999/xlink" x="0px" y="0px"
	 width="141.73px" height="141.73px" viewBox="0 0 141.73 141.73" enable-background="new 0 0 141.73 141.73" xml:space="preserve">
<g>
	<path fill="#FFFFFF" d="M141.729,141.729H0V0h141.729V141.729z M1.363,140.366h139.003V1.363H1.363V140.366z"/>
	<g>
		<path fill="#FFFFFF" d="M113.201,20.476v22.361h9.254V20.476h7.979v-6.824h-25.259v6.824H113.201z M82.798,13.651h-9.253v18.411
			c0,8.155,6.278,11.461,13.832,11.461s13.832-3.306,13.832-11.461V13.651h-9.253v17.64c0,3.304-1.982,4.764-4.579,4.764
			s-4.579-1.46-4.579-4.764V13.651z M47.767,42.836h11.425l10.246-29.185H59.051l-5.477,20.558h-0.189L47.91,13.651H37.522
			L47.767,42.836z M9.621,28.243c0,9.314,7.224,15.065,16.665,15.065c3.825,0,7.036-0.901,8.971-1.803v-7.339
			c-1.84,0.901-3.967,1.674-7.317,1.674c-3.352,0-8.215-2.317-8.215-7.597c0-5.278,4.438-7.768,8.734-7.768
			c2.926,0,4.958,0.601,6.751,1.415v-7.252c-1.889-0.771-4.25-1.373-8.026-1.373C17.693,13.265,9.621,18.931,9.621,28.243"/>
	</g>
	<polygon fill="#FFFFFF" points="15.607,6.192 21.65,12.367 30.734,12.367 36.777,6.192 29.28,6.192 26.281,9.159 26.105,9.159 
		23.106,6.192 	"/>
	<g>
		<path fill="#FFFFFF" d="M35.395,101.575v6.665H22.673v4.771h12.579v6.493H22.673v11.308h-9.27v-29.237H35.395z"/>
		<path fill="#FFFFFF" d="M41.074,101.575h22.179v6.665H50.344v4.687h12.484v6.492H50.344v4.729h12.909v6.664H41.074V101.575z"/>
		<path fill="#FFFFFF" d="M69.831,101.575h9.27v22.314h11.491v6.923H69.831V101.575z"/>
	</g>
</g>
</svg>
